<svg id="Layer_1" data-name="Layer 1" xmlns="http://www.w3.org/2000/svg" viewBox="0 0 630.34 420"><defs><style>.cls-1{fill:#f9f9f9;}.cls-2{fill:#f7e136;}.cls-3{fill:#98e1f7;}.cls-4{fill:#91eff9;}.cls-10,.cls-11,.cls-12,.cls-13,.cls-14,.cls-15,.cls-16,.cls-17,.cls-19,.cls-20,.cls-21,.cls-4,.cls-5,.cls-6,.cls-7,.cls-8,.cls-9{stroke:#000;}.cls-10,.cls-11,.cls-12,.cls-13,.cls-14,.cls-15,.cls-16,.cls-17,.cls-19,.cls-20,.cls-21,.cls-23,.cls-4,.cls-5,.cls-6,.cls-7,.cls-8,.cls-9{stroke-miterlimit:10;}.cls-5{fill:#f4bf8b;}.cls-6{fill:#414143;}.cls-18,.cls-7{fill:#7c2506;}.cls-8{fill:#f5c08a;}.cls-9{fill:#fbcea0;}.cls-10{fill:#fc7070;}.cls-11{fill:#b7b7b7;}.cls-12{fill:#4e4d50;}.cls-13{fill:#e5e5e5;}.cls-14{fill:#e6e6e6;}.cls-14,.cls-15,.cls-16,.cls-17{stroke-width:0.96px;}.cls-15{fill:#26efb1;}.cls-16{fill:none;}.cls-17{fill:#c69c6d;}.cls-19{fill:#222c39;}.cls-20{fill:#00c0a9;}.cls-21{fill:#4e5460;}.cls-22{fill:#4f4baf;}.cls-23{fill:#00b055;stroke:#f9f9f9;}</style></defs><title>ssl-handshake-image-01</title><rect class="cls-1" x="218.31" width="196.08" height="420"/><rect class="cls-2" width="218.31" height="420"/><rect class="cls-3" x="414.4" width="215.95" height="420"/><ellipse class="cls-4" cx="114.11" cy="317.43" rx="43.46" ry="37.64"/><path class="cls-5" d="M89,338.82l-10.72-1.23,19-35.49-1.35-15.65-28.47,51.6a3.53,3.53,0,0,0,2.64,5.2,112.62,112.62,0,0,0,20,1Z"/><path class="cls-5" d="M138.79,338.82l10.72-1.23-18.32-34.27.18-17.12,28.19,50.48a4.57,4.57,0,0,1-3.46,6.77,107.53,107.53,0,0,1-18.42.79Z"/><path class="cls-6" d="M78.21,342.77h71.47a0,0,0,0,1,0,0v3.45a4.19,4.19,0,0,1-4.19,4.19H82.4a4.19,4.19,0,0,1-4.19-4.19v-3.45a0,0,0,0,1,0,0Z"/><path class="cls-7" d="M76.83,276s-.63,4.66,12.29,1.7c0,0,3.39,2.39,4.66,1a4.78,4.78,0,0,0,.71-1.7,1,1,0,0,1,1.72-.44c1.46,1.47,3.88,3.2,6.89,2.59l3.71-.8s15.78-2.75,18.75.11h0a1.67,1.67,0,0,1,3.12.25l.16.56a2.86,2.86,0,0,1,3.07-.92,1.27,1.27,0,0,0,1-.62,2.19,2.19,0,0,1,3-.68c2.59,1.68,6.91,2.45,11.31-5.69,0,0-7.94,4.56-9.21-5.82,0,0-.64-1.94,0-8.62a41.33,41.33,0,0,0,.22-4.85c-.16-8.61-2.4-31.53-21.52-37.35a16.36,16.36,0,0,0-8.86-.25c-5.62,1.45-14.51,6.12-19.37,20.95A51.44,51.44,0,0,0,86,252.73c.1,4,.33,9.37.88,14.32C86.89,267.05,88.8,277.33,76.83,276Z"/><rect class="cls-8" x="109.09" y="274.13" width="9.61" height="8.87"/><path class="cls-9" d="M131.34,249.45c-.43-13.7-8.93-24.62-19.34-24.62-10.62,0-19.24,11.35-19.37,25.41-1,.75-1.89,2.17-.87,4.79a8.72,8.72,0,0,0,1.63,2.66c2.33,10.73,9.77,18.59,18.61,18.59,8.64,0,16-7.52,18.45-17.9C132.56,259,134,255,134,255,135.82,250.41,131.74,249.52,131.34,249.45Z"/><path class="cls-10" d="M131.37,311.34V286.2s-.77-3.69-12.79-3.94a13.23,13.23,0,0,1-9.86-.25s-10.22,0-12.81,4.44v24.89Z"/><rect class="cls-11" x="15.61" y="350.41" width="195.84" height="11"/><path class="cls-12" d="M86.17,309.74h56s3.82.12,3.45,5.05l-3.7,31.42s-.12,4.07-3.7,4.19H90.86s-4.07.37-4.69-5.67l-3.45-30.19S82.11,311.22,86.17,309.74Z"/><rect class="cls-11" x="30.4" y="361.41" width="167.91" height="58.16"/><path class="cls-7" d="M95.54,234.08s1.39-2.67,3.17-3.6c0,0,12.19,10.9,34.21,20.06l-.56,3.39,4.75,3.71-2.45-17L128,229.41l-9.12-5.79h-9.79l-8,.93-4.45,2.62v5.23Z"/><circle class="cls-13" cx="114.35" cy="329.37" r="5.26"/><path class="cls-14" d="M172.68,325.84v24.37h18.14V324.92s.16-4.63-5-4.63l-.12-2.66h-8.24v2.5A5.61,5.61,0,0,0,172.68,325.84Z"/><rect class="cls-15" x="176.31" y="312.65" width="10.88" height="4.98"/><path class="cls-16" d="M33.51,330.55H29.72A4.32,4.32,0,0,0,27,334.92a3.65,3.65,0,0,0,3.9,3.79h3.22"/><path class="cls-17" d="M33.62,329.74v9.35s1.42,5.44,4.85,7.33v3.79H49.24v-3.83a12.35,12.35,0,0,0,4-8.71v-7.93Z"/><path class="cls-16" d="M50.19,314.48H38.36s-2.61,1.18,0,2.37h8.4s2.48,1.56.11,2.61H37.76s-1.65.93,0,1.64h9.11s1.78.95.24,2.25H43.44s-2.84-.24-2.36,4.14"/><path class="cls-18" d="M93,229.12l2,6.63s3.56-4.84,4.47-5.31l-.34-2.72L102,226l15.44-1.56,10,5.87L133.73,241l.75,13.22-.41,2,3.22,3,.32-3.21-1.32-9.43-.93-6.67-6.85-11.25-9.65-6.34-12.5.31-5.82,1.09-4.72,2.72Z"/><polygon class="cls-19" points="426.55 396.83 471.19 401.46 471.19 266.21 426.55 271.17 426.55 396.83"/><polygon class="cls-20" points="432.84 282.09 467.06 279.77 467.06 287.71 432.84 289.53 432.84 282.09"/><polygon class="cls-20" points="432.84 294.65 467.06 293.16 467.06 301.26 432.84 302.26 432.84 294.65"/><polygon class="cls-20" points="432.84 307.88 467.06 306.89 467.06 315.32 432.84 315.32 432.84 307.88"/><rect class="cls-20" x="432.84" y="320.61" width="34.22" height="7.94"/><rect class="cls-19" x="495" y="257.29" width="53.9" height="144.17"/><rect class="cls-20" x="502.77" y="271.17" width="38.03" height="8.6"/><rect class="cls-20" x="502.77" y="300.99" width="38.03" height="8.6"/><rect class="cls-20" x="502.77" y="316.14" width="38.03" height="8.6"/><rect class="cls-20" x="502.77" y="286.08" width="38.03" height="8.6"/><polygon class="cls-21" points="471.19 266.21 488.06 271.17 488.06 399.14 471.19 401.46 471.19 266.21"/><polygon class="cls-19" points="616.36 396.83 571.72 401.46 571.72 266.21 616.36 271.17 616.36 396.83"/><polygon class="cls-20" points="610.07 282.09 575.85 279.77 575.85 287.71 610.07 289.53 610.07 282.09"/><polygon class="cls-20" points="610.07 294.65 575.85 293.16 575.85 301.26 610.07 302.26 610.07 294.65"/><polygon class="cls-20" points="610.07 307.88 575.85 306.89 575.85 315.32 610.07 315.32 610.07 307.88"/><rect class="cls-20" x="575.85" y="320.61" width="34.22" height="7.94"/><polygon class="cls-21" points="571.72 266.21 554.85 271.17 554.85 399.14 571.72 401.46 571.72 266.21"/><circle class="cls-20" cx="522.94" cy="365.92" r="8.59"/><rect class="cls-20" x="527.36" y="257.29" width="3.13" height="4.71"/><rect class="cls-20" x="532.36" y="257.29" width="3.13" height="4.71"/><rect class="cls-20" x="537.36" y="257.29" width="3.13" height="4.71"/><path d="M279.92,59.68a5.11,5.11,0,0,1,0-7.09,4.82,4.82,0,0,1,3.51-1.39,5.18,5.18,0,0,1,2.7.71A4.25,4.25,0,0,1,287.87,54h-1.54a3,3,0,0,0-2.9-1.64,3.51,3.51,0,0,0-2.61,1.05,3.73,3.73,0,0,0-1,2.76,3.77,3.77,0,0,0,1,2.77A3.51,3.51,0,0,0,283.43,60a3.45,3.45,0,0,0,1.72-.42,3,3,0,0,0,1.18-1.23h1.54a4.21,4.21,0,0,1-1.74,2.06,5.09,5.09,0,0,1-2.7.71A4.79,4.79,0,0,1,279.92,59.68Z"/><path d="M289.87,61V50.64h1.28V61Z"/><path d="M294.51,51.83a.84.84,0,0,1-.62.25.81.81,0,0,1-.61-.25.86.86,0,0,1-.24-.62.85.85,0,0,1,.86-.86.84.84,0,0,1,.61.25.88.88,0,0,1,0,1.23ZM293.25,61V53.31h1.27V61Z"/><path d="M299.84,61.13a3.54,3.54,0,0,1-2.69-1.1,4.51,4.51,0,0,1,0-5.76,3.69,3.69,0,0,1,6.42,2.57,6.06,6.06,0,0,1,0,.76h-6.12a2.58,2.58,0,0,0,.72,1.81,2.31,2.31,0,0,0,1.7.67,2.4,2.4,0,0,0,1.32-.35,2.09,2.09,0,0,0,.79-.93h1.38a3.57,3.57,0,0,1-1.26,1.67A3.62,3.62,0,0,1,299.84,61.13Zm1.72-6.23a2.52,2.52,0,0,0-3.39,0,2.65,2.65,0,0,0-.74,1.78h4.83A2.41,2.41,0,0,0,301.56,54.9Z"/><path d="M306.45,53.31v1.25a2.68,2.68,0,0,1,2.5-1.37,2.89,2.89,0,0,1,2.13.85,3.22,3.22,0,0,1,.86,2.41V61h-1.27V56.66a2.51,2.51,0,0,0-.55-1.76,2,2,0,0,0-1.55-.61,2,2,0,0,0-1.56.61,2.51,2.51,0,0,0-.56,1.76V61h-1.28V53.31Z"/><path d="M316.48,60h1v1h-1.28a1.75,1.75,0,0,1-2-2V54.35h-1v-1h1v-1.9h1.28v1.9h2v1h-2V59a1,1,0,0,0,.21.72A1,1,0,0,0,316.48,60Z"/><path d="M324.41,50.64v3.92a2.68,2.68,0,0,1,2.5-1.37A2.89,2.89,0,0,1,329,54a3.22,3.22,0,0,1,.86,2.41V61h-1.26V56.66a2.51,2.51,0,0,0-.56-1.76,2.27,2.27,0,0,0-3.1,0,2.47,2.47,0,0,0-.57,1.76V61h-1.28V50.64Z"/><path d="M335.15,61.13a3.53,3.53,0,0,1-2.69-1.1,4.49,4.49,0,0,1,0-5.76,3.63,3.63,0,0,1,2.72-1.08,3.51,3.51,0,0,1,3.71,3.65,4.59,4.59,0,0,1-.06.76h-6.12a2.67,2.67,0,0,0,.72,1.81,2.35,2.35,0,0,0,1.71.67,2.4,2.4,0,0,0,1.32-.35,2.15,2.15,0,0,0,.79-.93h1.37a3.55,3.55,0,0,1-1.25,1.67A3.64,3.64,0,0,1,335.15,61.13Zm1.72-6.23a2.52,2.52,0,0,0-3.39,0,2.56,2.56,0,0,0-.74,1.78h4.83A2.41,2.41,0,0,0,336.87,54.9Z"/><path d="M340.48,61V50.64h1.27V61Z"/><path d="M343.85,61V50.64h1.28V61Z"/><path d="M347.78,60a4,4,0,0,1-1.06-2.87,3.86,3.86,0,0,1,1.11-2.87,4,4,0,0,1,5.54,0,3.86,3.86,0,0,1,1.11,2.87A3.76,3.76,0,0,1,353.32,60a3.93,3.93,0,0,1-2.82,1.1A3.62,3.62,0,0,1,347.78,60Zm2.72,0a2.56,2.56,0,0,0,1.87-.78,2.88,2.88,0,0,0,.79-2.15,2.94,2.94,0,0,0-.75-2.14,2.47,2.47,0,0,0-1.84-.77,2.38,2.38,0,0,0-1.82.77,3,3,0,0,0-.72,2.15,3.08,3.08,0,0,0,.7,2.15A2.3,2.3,0,0,0,350.5,60.08Z"/><path d="M278.15,108.22a1.28,1.28,0,0,0,.29.88,1.7,1.7,0,0,0,.76.52,9.21,9.21,0,0,0,1,.3c.37.08.75.18,1.13.28a5,5,0,0,1,1,.42,1.87,1.87,0,0,1,.75.75,2.41,2.41,0,0,1,.3,1.25,2.66,2.66,0,0,1-.87,2,3.23,3.23,0,0,1-2.34.84,3.93,3.93,0,0,1-2.41-.68,2.16,2.16,0,0,1-.92-1.84h1.36a1.55,1.55,0,0,0,.52,1.07,2.11,2.11,0,0,0,1.4.4,2.22,2.22,0,0,0,1.47-.47,1.45,1.45,0,0,0,.54-1.12,1.51,1.51,0,0,0-.29-1,1.76,1.76,0,0,0-.76-.51,8,8,0,0,0-1-.29c-.37-.07-.75-.17-1.13-.28a5.06,5.06,0,0,1-1-.43,2,2,0,0,1-.76-.77,2.57,2.57,0,0,1-.29-1.27,2.46,2.46,0,0,1,.88-2,3.37,3.37,0,0,1,2.28-.75,3.57,3.57,0,0,1,2.24.65,2.6,2.6,0,0,1,1,1.8h-1.42a1.42,1.42,0,0,0-.54-1,1.94,1.94,0,0,0-1.3-.4,2.14,2.14,0,0,0-1.34.41A1.47,1.47,0,0,0,278.15,108.22Z"/><path d="M288.55,115.46a3.53,3.53,0,0,1-2.69-1.09,4,4,0,0,1-1-2.89,4,4,0,0,1,1.05-2.87,3.61,3.61,0,0,1,2.73-1.09,3.51,3.51,0,0,1,3.7,3.66,4.38,4.38,0,0,1-.06.75h-6.11a2.56,2.56,0,0,0,.72,1.81,2.28,2.28,0,0,0,1.7.67,2.4,2.4,0,0,0,1.32-.35,2.07,2.07,0,0,0,.79-.92H292a3.52,3.52,0,0,1-1.25,1.66A3.64,3.64,0,0,1,288.55,115.46Zm1.72-6.22a2.32,2.32,0,0,0-1.7-.67,2.35,2.35,0,0,0-1.69.65,2.63,2.63,0,0,0-.74,1.79H291A2.38,2.38,0,0,0,290.27,109.24Z"/><path d="M295.16,107.65V109a2.38,2.38,0,0,1,2.33-1.43v1.33h-.33a2,2,0,0,0-1.49.51,2.46,2.46,0,0,0-.51,1.77v4.2h-1.28v-7.68Z"/><path d="M298.15,107.65h1.36l2.35,6.49,2.37-6.49h1.37l-3,7.68h-1.44Z"/><path d="M310,115.46a3.53,3.53,0,0,1-2.69-1.09,4,4,0,0,1-1-2.89,4,4,0,0,1,1.05-2.87,3.61,3.61,0,0,1,2.73-1.09,3.51,3.51,0,0,1,3.7,3.66,4.38,4.38,0,0,1-.06.75h-6.11a2.56,2.56,0,0,0,.72,1.81,2.28,2.28,0,0,0,1.7.67,2.4,2.4,0,0,0,1.32-.35,2.07,2.07,0,0,0,.79-.92h1.37a3.52,3.52,0,0,1-1.25,1.66A3.64,3.64,0,0,1,310,115.46Zm1.72-6.22a2.32,2.32,0,0,0-1.7-.67,2.35,2.35,0,0,0-1.69.65,2.63,2.63,0,0,0-.74,1.79h4.83A2.38,2.38,0,0,0,311.76,109.24Z"/><path d="M316.65,107.65V109a2.38,2.38,0,0,1,2.33-1.43v1.33h-.33a2,2,0,0,0-1.49.51,2.46,2.46,0,0,0-.51,1.77v4.2h-1.28v-7.68Z"/><path d="M326,105v3.92a2.68,2.68,0,0,1,2.5-1.37,2.89,2.89,0,0,1,2.13.85,3.24,3.24,0,0,1,.86,2.41v4.55h-1.26V111a2.51,2.51,0,0,0-.56-1.76,2,2,0,0,0-1.55-.6,2,2,0,0,0-1.56.6A2.51,2.51,0,0,0,326,111v4.34h-1.28V105Z"/><path d="M336.74,115.46a3.52,3.52,0,0,1-2.69-1.09,4,4,0,0,1-1-2.89,4,4,0,0,1,1.05-2.87,3.7,3.7,0,0,1,6.43,2.57,4.38,4.38,0,0,1-.06.75h-6.12a2.65,2.65,0,0,0,.72,1.81,2.3,2.3,0,0,0,1.71.67,2.4,2.4,0,0,0,1.32-.35,2.07,2.07,0,0,0,.79-.92h1.37A3.52,3.52,0,0,1,339,114.8,3.64,3.64,0,0,1,336.74,115.46Zm1.72-6.22a2.51,2.51,0,0,0-3.39,0,2.58,2.58,0,0,0-.74,1.79h4.83A2.42,2.42,0,0,0,338.46,109.24Z"/><path d="M342.07,115.33V105h1.27v10.36Z"/><path d="M345.44,115.33V105h1.28v10.36Z"/><path d="M349.37,114.37a3.94,3.94,0,0,1-1.06-2.87,3.87,3.87,0,0,1,1.11-2.88,4,4,0,0,1,5.54,0,3.86,3.86,0,0,1,1.11,2.87,3.78,3.78,0,0,1-1.16,2.87,4,4,0,0,1-2.82,1.1A3.62,3.62,0,0,1,349.37,114.37Zm2.72,0a2.58,2.58,0,0,0,1.87-.78,2.86,2.86,0,0,0,.79-2.15,2.94,2.94,0,0,0-.75-2.14,2.51,2.51,0,0,0-1.84-.77,2.42,2.42,0,0,0-1.82.77,3,3,0,0,0-.72,2.15,3.06,3.06,0,0,0,.7,2.15A2.28,2.28,0,0,0,352.09,114.41Z"/><path d="M274.35,183.69a5,5,0,0,1-3.44-8.49,4.82,4.82,0,0,1,3.51-1.39,5.18,5.18,0,0,1,2.7.71,4.25,4.25,0,0,1,1.74,2.06h-1.54a3,3,0,0,0-2.9-1.64,3.51,3.51,0,0,0-2.61,1.05,3.77,3.77,0,0,0-1,2.76,3.81,3.81,0,0,0,1,2.77,3.45,3.45,0,0,0,2.56,1,3.5,3.5,0,0,0,2.47-.86,3.6,3.6,0,0,0,1.08-2.36h-4v-1h5.35v1a4.7,4.7,0,0,1-1.56,3.11A4.82,4.82,0,0,1,274.35,183.69Z"/><path d="M284.08,183.73a3.53,3.53,0,0,1-2.69-1.09,4.51,4.51,0,0,1,0-5.76,3.63,3.63,0,0,1,2.72-1.08,3.59,3.59,0,0,1,2.69,1,3.55,3.55,0,0,1,1,2.62,4.62,4.62,0,0,1-.05.76h-6.12a2.67,2.67,0,0,0,.72,1.81,2.31,2.31,0,0,0,1.7.67,2.36,2.36,0,0,0,1.33-.36,2.14,2.14,0,0,0,.79-.92h1.37a3.55,3.55,0,0,1-1.25,1.67A3.67,3.67,0,0,1,284.08,183.73Zm1.72-6.22a2.34,2.34,0,0,0-1.7-.66,2.28,2.28,0,0,0-1.68.65,2.61,2.61,0,0,0-.75,1.78h4.83A2.41,2.41,0,0,0,285.8,177.51Z"/><path d="M290.69,175.92v1.25a2.66,2.66,0,0,1,2.51-1.37,2.89,2.89,0,0,1,2.12.84,3.26,3.26,0,0,1,.86,2.42v4.55h-1.26v-4.34a2.54,2.54,0,0,0-.56-1.77,2.3,2.3,0,0,0-3.1,0,2.49,2.49,0,0,0-.57,1.77v4.34h-1.27v-7.69Z"/><path d="M301.43,183.73a3.53,3.53,0,0,1-2.69-1.09,4.49,4.49,0,0,1,0-5.76,3.64,3.64,0,0,1,2.73-1.08,3.51,3.51,0,0,1,3.7,3.65,4.59,4.59,0,0,1-.06.76H299a2.58,2.58,0,0,0,.72,1.81,2.54,2.54,0,0,0,3,.31,2.07,2.07,0,0,0,.79-.92h1.37a3.55,3.55,0,0,1-1.25,1.67A3.64,3.64,0,0,1,301.43,183.73Zm1.72-6.22a2.35,2.35,0,0,0-1.7-.66,2.31,2.31,0,0,0-1.69.65,2.6,2.6,0,0,0-.74,1.78h4.83A2.41,2.41,0,0,0,303.15,177.51Z"/><path d="M308,175.92v1.31a2.37,2.37,0,0,1,2.33-1.43v1.33H310a2,2,0,0,0-1.49.51,2.46,2.46,0,0,0-.51,1.77v4.2h-1.28v-7.69Z"/><path d="M312.46,182.61a4.06,4.06,0,0,1-1-2.89,4,4,0,0,1,1-2.84,3.51,3.51,0,0,1,2.63-1.08,3.1,3.1,0,0,1,2.83,1.66v-1.54h1.28v7.69h-1.28V182a3.22,3.22,0,0,1-1.12,1.23,3.13,3.13,0,0,1-1.71.46A3.43,3.43,0,0,1,312.46,182.61Zm4.68-.75a3.21,3.21,0,0,0,0-4.17,2.45,2.45,0,0,0-1.83-.79,2.51,2.51,0,0,0-1.84.76,2.79,2.79,0,0,0-.76,2.06,3,3,0,0,0,.77,2.11,2.5,2.5,0,0,0,3.66,0Z"/><path d="M323.81,182.57h1.05v1h-1.28a1.76,1.76,0,0,1-2-2V177h-1v-1h1V174h1.29v1.9h2v1h-2v4.67a1,1,0,0,0,.21.73A1,1,0,0,0,323.81,182.57Z"/><path d="M327.52,174.44a.81.81,0,0,1-.61.25.79.79,0,0,1-.61-.25.87.87,0,0,1-.25-.62.83.83,0,0,1,.26-.61.86.86,0,0,1,1.21,0,.86.86,0,0,1,0,1.23Zm-1.26,9.17v-7.69h1.28v7.69Z"/><path d="M330.19,182.64a4,4,0,0,1-1.06-2.87,3.86,3.86,0,0,1,1.11-2.87,4,4,0,0,1,5.54,0,4.21,4.21,0,0,1,0,5.74,4,4,0,0,1-2.83,1.09A3.62,3.62,0,0,1,330.19,182.64Zm2.72.05a2.56,2.56,0,0,0,1.87-.78,2.88,2.88,0,0,0,.79-2.15,2.92,2.92,0,0,0-.75-2.14,2.47,2.47,0,0,0-1.84-.77,2.38,2.38,0,0,0-1.82.77,3,3,0,0,0-.72,2.15,3.08,3.08,0,0,0,.7,2.15A2.3,2.3,0,0,0,332.91,182.69Z"/><path d="M339.76,175.92v1.25a2.66,2.66,0,0,1,2.51-1.37,2.89,2.89,0,0,1,2.12.84,3.26,3.26,0,0,1,.86,2.42v4.55H344v-4.34a2.54,2.54,0,0,0-.56-1.77,2.3,2.3,0,0,0-3.1,0,2.49,2.49,0,0,0-.57,1.77v4.34h-1.27v-7.69Z"/><path d="M352,182.64a4,4,0,0,1-1.06-2.87,3.86,3.86,0,0,1,1.11-2.87,4,4,0,0,1,5.54,0,4.21,4.21,0,0,1,0,5.74,4,4,0,0,1-2.83,1.09A3.62,3.62,0,0,1,352,182.64Zm2.72.05a2.56,2.56,0,0,0,1.87-.78,2.88,2.88,0,0,0,.79-2.15,2.92,2.92,0,0,0-.75-2.14,2.47,2.47,0,0,0-1.84-.77,2.38,2.38,0,0,0-1.82.77,3,3,0,0,0-.72,2.15,3.08,3.08,0,0,0,.7,2.15A2.28,2.28,0,0,0,354.75,182.69Z"/><path d="M363.49,175.92v1h-1.61v6.65h-1.29V177h-1v-1h1v-.64a2.34,2.34,0,0,1,.67-1.84,3.26,3.26,0,0,1,2.12-.57v1a1.69,1.69,0,0,0-1.17.31,1.42,1.42,0,0,0-.33,1.06v.64Z"/><path d="M279.59,202.09a2.07,2.07,0,0,1,.8-1.63,3.21,3.21,0,0,1,2.09-.66,2.89,2.89,0,0,1,2,.65,2.52,2.52,0,0,1,.8,1.78H284a1.46,1.46,0,0,0-.43-1,1.57,1.57,0,0,0-1.13-.4,1.7,1.7,0,0,0-1.13.35,1.08,1.08,0,0,0-.42.88.92.92,0,0,0,.47.83,3.27,3.27,0,0,0,1.14.43c.44.09.88.19,1.33.31a2.28,2.28,0,0,1,1.13.66,1.9,1.9,0,0,1,.47,1.37,1.83,1.83,0,0,1-.81,1.5,3.39,3.39,0,0,1-2.09.6,3.1,3.1,0,0,1-2.06-.64,2.36,2.36,0,0,1-.85-1.78h1.31a1.38,1.38,0,0,0,.46,1,1.67,1.67,0,0,0,1.17.39,1.88,1.88,0,0,0,1.18-.33,1,1,0,0,0,.43-.81,1,1,0,0,0-.34-.8,1.83,1.83,0,0,0-.84-.4c-.33-.08-.7-.16-1.1-.27s-.76-.21-1.1-.33a1.84,1.84,0,0,1-.84-.6A1.78,1.78,0,0,1,279.59,202.09Z"/><path d="M290.45,207.73a3.53,3.53,0,0,1-2.69-1.09,4.51,4.51,0,0,1,0-5.76,3.63,3.63,0,0,1,2.72-1.08,3.59,3.59,0,0,1,2.69,1,3.55,3.55,0,0,1,1,2.62,4.62,4.62,0,0,1-.05.76H288a2.67,2.67,0,0,0,.72,1.81,2.54,2.54,0,0,0,3,.31,2.09,2.09,0,0,0,.8-.92h1.37a3.5,3.5,0,0,1-1.26,1.67A3.62,3.62,0,0,1,290.45,207.73Zm1.72-6.22a2.34,2.34,0,0,0-1.7-.66,2.28,2.28,0,0,0-1.68.65,2.61,2.61,0,0,0-.75,1.78h4.83A2.41,2.41,0,0,0,292.17,201.51Z"/><path d="M295.51,202.09a2,2,0,0,1,.8-1.63,3.19,3.19,0,0,1,2.09-.66,2.89,2.89,0,0,1,2,.65,2.47,2.47,0,0,1,.79,1.78h-1.31a1.46,1.46,0,0,0-.44-1,1.55,1.55,0,0,0-1.12-.4,1.74,1.74,0,0,0-1.14.35,1.1,1.1,0,0,0-.41.88.92.92,0,0,0,.47.83,3.29,3.29,0,0,0,1.13.43c.45.09.89.19,1.33.31a2.31,2.31,0,0,1,1.14.66,1.9,1.9,0,0,1,.47,1.37,1.83,1.83,0,0,1-.81,1.5,3.41,3.41,0,0,1-2.09.6,3.14,3.14,0,0,1-2.07-.64,2.35,2.35,0,0,1-.84-1.78h1.31a1.38,1.38,0,0,0,.46,1,1.65,1.65,0,0,0,1.17.39,1.9,1.9,0,0,0,1.18-.33,1,1,0,0,0,.43-.81,1,1,0,0,0-.34-.8,1.83,1.83,0,0,0-.84-.4c-.34-.08-.7-.16-1.1-.27s-.76-.21-1.1-.33a1.84,1.84,0,0,1-.84-.6A1.78,1.78,0,0,1,295.51,202.09Z"/><path d="M302.87,202.09a2.07,2.07,0,0,1,.8-1.63,3.21,3.21,0,0,1,2.09-.66,2.89,2.89,0,0,1,2,.65,2.52,2.52,0,0,1,.8,1.78h-1.32a1.46,1.46,0,0,0-.43-1,1.57,1.57,0,0,0-1.13-.4,1.7,1.7,0,0,0-1.13.35,1.08,1.08,0,0,0-.42.88.92.92,0,0,0,.47.83,3.34,3.34,0,0,0,1.14.43c.44.09.88.19,1.33.31a2.28,2.28,0,0,1,1.13.66,1.9,1.9,0,0,1,.47,1.37,1.83,1.83,0,0,1-.81,1.5,3.39,3.39,0,0,1-2.09.6,3.1,3.1,0,0,1-2.06-.64,2.39,2.39,0,0,1-.85-1.78h1.32a1.38,1.38,0,0,0,.45,1,1.7,1.7,0,0,0,1.18.39,1.85,1.85,0,0,0,1.17-.33,1,1,0,0,0,.43-.81,1,1,0,0,0-.34-.8,1.83,1.83,0,0,0-.84-.4c-.33-.08-.7-.16-1.1-.27s-.76-.21-1.09-.33a1.75,1.75,0,0,1-.84-.6A1.72,1.72,0,0,1,302.87,202.09Z"/><path d="M311.77,198.44a.81.81,0,0,1-.61.25.79.79,0,0,1-.61-.25.87.87,0,0,1-.25-.62.83.83,0,0,1,.26-.61.86.86,0,0,1,1.21,0,.86.86,0,0,1,0,1.23Zm-1.26,9.17v-7.69h1.28v7.69Z"/><path d="M314.44,206.64a4,4,0,0,1-1.06-2.87,3.86,3.86,0,0,1,1.11-2.87,4,4,0,0,1,5.54,0,3.86,3.86,0,0,1,1.11,2.87,3.8,3.8,0,0,1-1.16,2.87,3.94,3.94,0,0,1-2.82,1.09A3.6,3.6,0,0,1,314.44,206.64Zm2.72.05a2.58,2.58,0,0,0,1.87-.78,2.88,2.88,0,0,0,.79-2.15,2.92,2.92,0,0,0-.75-2.14,2.47,2.47,0,0,0-1.84-.77,2.38,2.38,0,0,0-1.82.77,3,3,0,0,0-.72,2.15,3.08,3.08,0,0,0,.7,2.15A2.28,2.28,0,0,0,317.16,206.69Z"/><path d="M324,199.92v1.25a2.66,2.66,0,0,1,2.51-1.37,2.89,2.89,0,0,1,2.12.84,3.26,3.26,0,0,1,.86,2.42v4.55h-1.26v-4.34a2.54,2.54,0,0,0-.56-1.77,2.3,2.3,0,0,0-3.1,0,2.49,2.49,0,0,0-.57,1.77v4.34h-1.27v-7.69Z"/><path d="M337,207.61h-1.27V197.25H337v6.07l2.94-3.4h1.79l-3.62,3.83,3.62,3.86H340l-3-3.38Z"/><path d="M346.13,207.73a3.53,3.53,0,0,1-2.69-1.09,4.52,4.52,0,0,1,0-5.76,3.65,3.65,0,0,1,2.73-1.08,3.5,3.5,0,0,1,3.7,3.65,6.06,6.06,0,0,1-.05.76h-6.12a2.58,2.58,0,0,0,.72,1.81,2.54,2.54,0,0,0,3,.31,2,2,0,0,0,.79-.92h1.38a3.5,3.5,0,0,1-3.49,2.32Zm1.72-6.22a2.35,2.35,0,0,0-1.7-.66,2.31,2.31,0,0,0-1.69.65,2.6,2.6,0,0,0-.74,1.78h4.83A2.41,2.41,0,0,0,347.85,201.51Z"/><path d="M353.62,207.48l-3-7.56H352l2.35,6.22,2.4-6.22H358l-4.63,11.29h-1.32Z"/><path d="M294.67,249.55a1.33,1.33,0,0,0,.29.89,1.88,1.88,0,0,0,.76.52,9.75,9.75,0,0,0,1,.29c.38.08.76.18,1.14.29a4.52,4.52,0,0,1,1,.41,1.89,1.89,0,0,1,.75.76A2.37,2.37,0,0,1,300,254a2.63,2.63,0,0,1-.87,2,3.23,3.23,0,0,1-2.35.84,4,4,0,0,1-2.4-.67,2.2,2.2,0,0,1-.92-1.85h1.36a1.55,1.55,0,0,0,.52,1.07,2.11,2.11,0,0,0,1.4.4,2.16,2.16,0,0,0,1.47-.47,1.45,1.45,0,0,0,.54-1.12,1.48,1.48,0,0,0-.29-1,1.88,1.88,0,0,0-.76-.52,8,8,0,0,0-1-.28c-.38-.08-.75-.18-1.13-.29a4.55,4.55,0,0,1-1-.43,2,2,0,0,1-.76-.77,2.55,2.55,0,0,1-.29-1.26,2.49,2.49,0,0,1,.87-2,3.41,3.41,0,0,1,2.29-.75,3.53,3.53,0,0,1,2.24.65,2.56,2.56,0,0,1,1,1.8h-1.42a1.43,1.43,0,0,0-.54-1,2,2,0,0,0-1.3-.41,2.12,2.12,0,0,0-1.34.41A1.47,1.47,0,0,0,294.67,249.55Z"/><path d="M305.07,256.79a3.53,3.53,0,0,1-2.69-1.09,4,4,0,0,1-1-2.88,4,4,0,0,1,1.05-2.88,4,4,0,0,1,5.41-.06,3.58,3.58,0,0,1,1,2.63,4.38,4.38,0,0,1-.06.75h-6.11a2.6,2.6,0,0,0,.72,1.82,2.58,2.58,0,0,0,3,.31,2.07,2.07,0,0,0,.79-.92h1.37a3.47,3.47,0,0,1-1.25,1.66A3.64,3.64,0,0,1,305.07,256.79Zm1.72-6.22a2.36,2.36,0,0,0-1.7-.67,2.31,2.31,0,0,0-1.69.66,2.58,2.58,0,0,0-.74,1.78h4.83A2.38,2.38,0,0,0,306.79,250.57Z"/><path d="M311.68,249v1.3a2.38,2.38,0,0,1,2.33-1.43v1.33h-.33a2,2,0,0,0-1.49.52,2.46,2.46,0,0,0-.51,1.77v4.2H310.4V249Z"/><path d="M314.67,249H316l2.35,6.5,2.37-6.5h1.37l-3,7.69h-1.44Z"/><path d="M326.56,256.79a3.53,3.53,0,0,1-2.69-1.09,4,4,0,0,1-1-2.88,4,4,0,0,1,1.05-2.88,4,4,0,0,1,5.41-.06,3.58,3.58,0,0,1,1,2.63,4.38,4.38,0,0,1-.06.75h-6.11a2.6,2.6,0,0,0,.72,1.82,2.58,2.58,0,0,0,3,.31,2.07,2.07,0,0,0,.79-.92H330a3.47,3.47,0,0,1-1.25,1.66A3.64,3.64,0,0,1,326.56,256.79Zm1.72-6.22a2.36,2.36,0,0,0-1.7-.67,2.31,2.31,0,0,0-1.69.66,2.58,2.58,0,0,0-.74,1.78H329A2.38,2.38,0,0,0,328.28,250.57Z"/><path d="M333.17,249v1.3a2.38,2.38,0,0,1,2.33-1.43v1.33h-.33a2,2,0,0,0-1.49.52,2.46,2.46,0,0,0-.51,1.77v4.2h-1.28V249Z"/><path d="M253.11,279.67a4.09,4.09,0,0,1-1.05-2.89,3.9,3.9,0,0,1,1-2.84,3.51,3.51,0,0,1,2.62-1.09,3.14,3.14,0,0,1,1.72.47,3,3,0,0,1,1.11,1.2V273h1.29v7.69h-1.29V279.1a3,3,0,0,1-1.11,1.22,3.06,3.06,0,0,1-1.72.47A3.42,3.42,0,0,1,253.11,279.67Zm4.68-.75a3.25,3.25,0,0,0,0-4.18A2.47,2.47,0,0,0,256,274a2.5,2.5,0,0,0-1.84.76,2.75,2.75,0,0,0-.76,2,3,3,0,0,0,.77,2.12,2.43,2.43,0,0,0,1.83.81A2.47,2.47,0,0,0,257.79,278.92Z"/><path d="M262.47,279.7a4,4,0,0,1-1-2.88,4,4,0,0,1,1-2.87,3.54,3.54,0,0,1,2.69-1.1,3.71,3.71,0,0,1,2.26.65,3.39,3.39,0,0,1,1.23,1.83h-1.38a2,2,0,0,0-.77-1.05,2.3,2.3,0,0,0-1.34-.38,2.23,2.23,0,0,0-1.76.77,3.85,3.85,0,0,0,0,4.31,2.22,2.22,0,0,0,1.76.76,2,2,0,0,0,2.11-1.43h1.38a3.54,3.54,0,0,1-1.24,1.81,3.6,3.6,0,0,1-2.25.67A3.53,3.53,0,0,1,262.47,279.7Z"/><path d="M271.62,280.67h-1.28V270.31h1.28v6.07l2.93-3.4h1.8l-3.63,3.82,3.63,3.87h-1.73l-3-3.38Z"/><path d="M278.8,273v1.25a2.66,2.66,0,0,1,2.5-1.38,2.93,2.93,0,0,1,2.13.85,3.26,3.26,0,0,1,.85,2.42v4.55H283v-4.34a2.48,2.48,0,0,0-.56-1.77,2,2,0,0,0-1.54-.6,2,2,0,0,0-1.56.6,2.52,2.52,0,0,0-.56,1.77v4.34h-1.28V273Z"/><path d="M286.87,279.7a4.35,4.35,0,0,1,.05-5.75,4,4,0,0,1,5.54,0,3.87,3.87,0,0,1,1.11,2.87,3.78,3.78,0,0,1-1.16,2.87,3.91,3.91,0,0,1-2.82,1.1A3.6,3.6,0,0,1,286.87,279.7Zm2.72,0a2.58,2.58,0,0,0,1.87-.78,2.84,2.84,0,0,0,.79-2.14,2.93,2.93,0,0,0-.76-2.15,2.48,2.48,0,0,0-1.84-.77,2.41,2.41,0,0,0-1.81.77,3,3,0,0,0-.73,2.15,3.11,3.11,0,0,0,.7,2.15A2.28,2.28,0,0,0,289.59,279.74Z"/><path d="M304,273h1.29l-2.43,7.69h-1.31l-1.74-6.11-1.73,6.11h-1.33L294.28,273h1.32l1.77,6.41,1.81-6.41h1.32l1.7,6.43Z"/><path d="M306.47,280.67V270.31h1.28v10.36Z"/><path d="M313.07,280.79a3.53,3.53,0,0,1-2.69-1.09,4,4,0,0,1-1-2.88,4,4,0,0,1,1.05-2.88,4,4,0,0,1,5.41-.06,3.58,3.58,0,0,1,1,2.63,4.38,4.38,0,0,1-.06.75h-6.11a2.6,2.6,0,0,0,.72,1.82,2.58,2.58,0,0,0,3,.31,2.07,2.07,0,0,0,.79-.92h1.37a3.47,3.47,0,0,1-1.25,1.66A3.64,3.64,0,0,1,313.07,280.79Zm1.72-6.22a2.36,2.36,0,0,0-1.7-.67,2.31,2.31,0,0,0-1.69.66,2.58,2.58,0,0,0-.74,1.78h4.83A2.38,2.38,0,0,0,314.79,274.57Z"/><path d="M319,279.67a4.09,4.09,0,0,1-1.05-2.89,3.94,3.94,0,0,1,1-2.84,3.51,3.51,0,0,1,2.63-1.09,3.13,3.13,0,0,1,1.71.47,3,3,0,0,1,1.11,1.2v-4.21h1.29v10.36h-1.29V279.1a3.07,3.07,0,0,1-2.82,1.69A3.43,3.43,0,0,1,319,279.67Zm4.68-.75a3.25,3.25,0,0,0,0-4.18,2.47,2.47,0,0,0-1.83-.78,2.5,2.5,0,0,0-1.84.76,2.75,2.75,0,0,0-.76,2,3,3,0,0,0,.77,2.12,2.45,2.45,0,0,0,1.83.81A2.47,2.47,0,0,0,323.63,278.92Z"/><path d="M328.33,279.67a4.09,4.09,0,0,1-1.05-2.89,3.94,3.94,0,0,1,1-2.84,3.51,3.51,0,0,1,2.63-1.09,3.13,3.13,0,0,1,1.71.47,3,3,0,0,1,1.11,1.2V273h1.29v7.88a3.47,3.47,0,0,1-1,2.59,3.57,3.57,0,0,1-2.59,1,4.44,4.44,0,0,1-2.6-.73,2.69,2.69,0,0,1-1.17-1.91h1.25a1.93,1.93,0,0,0,.85,1.1,3,3,0,0,0,1.67.43,2.29,2.29,0,0,0,1.66-.65,2.44,2.44,0,0,0,.66-1.83V279.1a3.07,3.07,0,0,1-2.82,1.69A3.43,3.43,0,0,1,328.33,279.67Zm4.68-.75a3.25,3.25,0,0,0,0-4.18,2.47,2.47,0,0,0-1.83-.78,2.5,2.5,0,0,0-1.84.76,2.75,2.75,0,0,0-.76,2,3,3,0,0,0,.77,2.12,2.43,2.43,0,0,0,1.83.81A2.47,2.47,0,0,0,333,278.92Z"/><path d="M340.38,280.79a3.55,3.55,0,0,1-2.69-1.09,4,4,0,0,1-1-2.88,4,4,0,0,1,1-2.88,4,4,0,0,1,5.41-.06,3.57,3.57,0,0,1,1,2.63,4.43,4.43,0,0,1-.05.75H338a2.69,2.69,0,0,0,.72,1.82,2.31,2.31,0,0,0,1.7.66,2.36,2.36,0,0,0,1.33-.35,2.14,2.14,0,0,0,.79-.92h1.37a3.47,3.47,0,0,1-1.25,1.66A3.67,3.67,0,0,1,340.38,280.79Zm1.72-6.22a2.35,2.35,0,0,0-1.7-.67,2.29,2.29,0,0,0-1.68.66,2.59,2.59,0,0,0-.75,1.78h4.83A2.34,2.34,0,0,0,342.1,274.57Z"/><path d="M347,273v1.25a2.67,2.67,0,0,1,2.51-1.38,3.08,3.08,0,0,1,1.59.43,2.68,2.68,0,0,1,1.08,1.24,3.22,3.22,0,0,1,1.14-1.23,3.13,3.13,0,0,1,1.65-.44,3,3,0,0,1,2.15.85,3.26,3.26,0,0,1,.86,2.42v4.55h-1.26v-4.34a2.48,2.48,0,0,0-.57-1.77,2,2,0,0,0-1.55-.6,2,2,0,0,0-1.54.6,2.48,2.48,0,0,0-.57,1.77v4.34h-1.26v-4.34a2.52,2.52,0,0,0-.56-1.77,2.3,2.3,0,0,0-3.1,0,2.48,2.48,0,0,0-.57,1.77v4.34h-1.27V273Z"/><path d="M363.22,280.79a3.52,3.52,0,0,1-2.69-1.09,4,4,0,0,1-1-2.88,4,4,0,0,1,1.05-2.88,4,4,0,0,1,5.41-.06,3.58,3.58,0,0,1,1,2.63,4.38,4.38,0,0,1-.06.75h-6.12a2.69,2.69,0,0,0,.72,1.82,2.59,2.59,0,0,0,3,.31,2.07,2.07,0,0,0,.79-.92h1.37a3.47,3.47,0,0,1-1.25,1.66A3.64,3.64,0,0,1,363.22,280.79Zm1.72-6.22a2.38,2.38,0,0,0-1.7-.67,2.31,2.31,0,0,0-1.69.66,2.54,2.54,0,0,0-.74,1.78h4.83A2.38,2.38,0,0,0,364.94,274.57Z"/><path d="M369.82,273v1.25a2.68,2.68,0,0,1,2.51-1.38,2.93,2.93,0,0,1,2.13.85,3.26,3.26,0,0,1,.85,2.42v4.55h-1.26v-4.34a2.48,2.48,0,0,0-.56-1.77,2,2,0,0,0-1.55-.6,2,2,0,0,0-1.55.6,2.48,2.48,0,0,0-.57,1.77v4.34h-1.27V273Z"/><path d="M379.86,279.63h1.05v1h-1.29a1.76,1.76,0,0,1-2-2V274h-1v-1h1v-1.9h1.29V273h2v1h-2v4.67a1,1,0,0,0,.21.73A1,1,0,0,0,379.86,279.63Z"/><path d="M276.14,344a4.95,4.95,0,0,1,3.51-8.49,5.1,5.1,0,0,1,2.7.72,4.16,4.16,0,0,1,1.74,2.06h-1.54a3,3,0,0,0-2.9-1.64,3.5,3.5,0,0,0-2.61,1,4.24,4.24,0,0,0,0,5.54,3.51,3.51,0,0,0,2.61,1.05,3.35,3.35,0,0,0,1.72-.43,2.89,2.89,0,0,0,1.18-1.22h1.54a4.18,4.18,0,0,1-1.74,2.05,5.1,5.1,0,0,1-2.7.72A4.83,4.83,0,0,1,276.14,344Z"/><path d="M286.64,344.37a4,4,0,0,1-1.05-2.87,3.9,3.9,0,0,1,1.1-2.88,4.05,4.05,0,0,1,5.55,0,3.89,3.89,0,0,1,1.1,2.87,3.77,3.77,0,0,1-1.15,2.87,4,4,0,0,1-2.82,1.1A3.64,3.64,0,0,1,286.64,344.37Zm2.73,0a2.58,2.58,0,0,0,1.87-.78,3.36,3.36,0,0,0,0-4.29,2.49,2.49,0,0,0-1.84-.77,2.4,2.4,0,0,0-1.81.77,3,3,0,0,0-.73,2.15,3.06,3.06,0,0,0,.7,2.15A2.32,2.32,0,0,0,289.37,344.41Z"/><path d="M296.21,337.65v1.24a2.69,2.69,0,0,1,2.51-1.37,2.89,2.89,0,0,1,2.13.85,3.24,3.24,0,0,1,.85,2.41v4.55h-1.26V341a2.51,2.51,0,0,0-.56-1.76,2,2,0,0,0-1.55-.6,2,2,0,0,0-1.55.6,2.47,2.47,0,0,0-.57,1.76v4.34h-1.27v-7.68Z"/><path d="M305,337.65v1.24a2.67,2.67,0,0,1,2.5-1.37,2.89,2.89,0,0,1,2.13.85,3.24,3.24,0,0,1,.85,2.41v4.55h-1.26V341a2.47,2.47,0,0,0-.56-1.76,2,2,0,0,0-1.54-.6,2,2,0,0,0-1.56.6A2.47,2.47,0,0,0,305,341v4.34h-1.28v-7.68Z"/><path d="M315.74,345.46a3.51,3.51,0,0,1-2.68-1.09,4,4,0,0,1-1-2.89,4,4,0,0,1,1.05-2.87,3.69,3.69,0,0,1,6.42,2.56,4.47,4.47,0,0,1-.05.76h-6.12a2.65,2.65,0,0,0,.72,1.81,2.29,2.29,0,0,0,1.7.67,2.42,2.42,0,0,0,1.33-.35,2,2,0,0,0,.79-.93h1.37A3.5,3.5,0,0,1,318,344.8,3.67,3.67,0,0,1,315.74,345.46Zm1.73-6.22a2.51,2.51,0,0,0-3.39,0,2.58,2.58,0,0,0-.74,1.79h4.82A2.37,2.37,0,0,0,317.47,339.24Z"/><path d="M321.61,344.37a4.51,4.51,0,0,1,0-5.76,3.53,3.53,0,0,1,2.69-1.09,3.71,3.71,0,0,1,2.26.65,3.34,3.34,0,0,1,1.22,1.83h-1.37a2,2,0,0,0-.77-1.05,2.3,2.3,0,0,0-1.34-.38,2.24,2.24,0,0,0-1.76.76,3.86,3.86,0,0,0,0,4.32,2.21,2.21,0,0,0,1.76.76,2,2,0,0,0,2.11-1.43h1.37a3.43,3.43,0,0,1-1.24,1.81,3.59,3.59,0,0,1-2.24.67A3.53,3.53,0,0,1,321.61,344.37Z"/><path d="M332,344.3h1.05v1h-1.29a1.75,1.75,0,0,1-2-2v-4.68h-1v-1h1v-1.91h1.29v1.91h2v1h-2v4.68a1,1,0,0,0,.2.73A1.07,1.07,0,0,0,332,344.3Z"/><path d="M335.71,336.16a.85.85,0,0,1-.62.26.88.88,0,0,1-.6-1.49.86.86,0,0,1,1.47.62A.81.81,0,0,1,335.71,336.16Zm-1.26,9.17v-7.68h1.27v7.68Z"/><path d="M338.37,344.37a4,4,0,0,1-1.05-2.87,3.9,3.9,0,0,1,1.1-2.88,4.05,4.05,0,0,1,5.55,0,3.89,3.89,0,0,1,1.1,2.87,3.77,3.77,0,0,1-1.15,2.87,4,4,0,0,1-2.82,1.1A3.64,3.64,0,0,1,338.37,344.37Zm2.73,0a2.59,2.59,0,0,0,1.87-.78,2.9,2.9,0,0,0,.79-2.15,2.94,2.94,0,0,0-.76-2.14,2.49,2.49,0,0,0-1.84-.77,2.4,2.4,0,0,0-1.81.77,3,3,0,0,0-.73,2.15,3.06,3.06,0,0,0,.7,2.15A2.32,2.32,0,0,0,341.1,344.41Z"/><path d="M347.94,337.65v1.24a2.69,2.69,0,0,1,2.51-1.37,2.89,2.89,0,0,1,2.13.85,3.24,3.24,0,0,1,.85,2.41v4.55h-1.26V341a2.51,2.51,0,0,0-.56-1.76,2,2,0,0,0-1.55-.6,2,2,0,0,0-1.55.6,2.47,2.47,0,0,0-.57,1.76v4.34h-1.27v-7.68Z"/><path d="M271.08,378.46a3.51,3.51,0,0,1-2.68-1.09,4,4,0,0,1-1-2.89,4,4,0,0,1,1.05-2.87,3.7,3.7,0,0,1,6.43,2.56,4.42,4.42,0,0,1-.06.76h-6.12a2.65,2.65,0,0,0,.72,1.81,2.29,2.29,0,0,0,1.7.67,2.42,2.42,0,0,0,1.33-.35,2,2,0,0,0,.79-.93h1.37a3.5,3.5,0,0,1-1.25,1.67A3.67,3.67,0,0,1,271.08,378.46Zm1.73-6.22a2.51,2.51,0,0,0-3.39,0,2.58,2.58,0,0,0-.74,1.79h4.83A2.42,2.42,0,0,0,272.81,372.24Z"/><path d="M276.14,372.82a2,2,0,0,1,.8-1.63,3.14,3.14,0,0,1,2.09-.67,2.94,2.94,0,0,1,2,.65,2.54,2.54,0,0,1,.8,1.79h-1.32a1.48,1.48,0,0,0-.43-1,1.58,1.58,0,0,0-1.13-.39,1.74,1.74,0,0,0-1.14.34,1.12,1.12,0,0,0-.41.88,1,1,0,0,0,.47.84A3.28,3.28,0,0,0,279,374c.45.09.89.2,1.33.31a2.42,2.42,0,0,1,1.14.66,1.9,1.9,0,0,1,.47,1.37,1.82,1.82,0,0,1-.81,1.5,3.33,3.33,0,0,1-2.09.61,3.14,3.14,0,0,1-2.07-.64,2.4,2.4,0,0,1-.84-1.78h1.31a1.4,1.4,0,0,0,.46,1,1.71,1.71,0,0,0,1.17.38,2,2,0,0,0,1.18-.32,1,1,0,0,0,.43-.82,1,1,0,0,0-.34-.79,1.84,1.84,0,0,0-.84-.41l-1.1-.26c-.39-.1-.76-.22-1.1-.33a1.87,1.87,0,0,1-.84-.61A1.75,1.75,0,0,1,276.14,372.82Z"/><path d="M286.3,377.3h1.05v1h-1.29a1.76,1.76,0,0,1-2-2v-4.68h-1v-1h1v-1.91h1.29v1.91h2v1h-2v4.68a1,1,0,0,0,.21.73A1,1,0,0,0,286.3,377.3Z"/><path d="M289.3,377.33a4.05,4.05,0,0,1-1.05-2.88,3.9,3.9,0,0,1,1-2.84,3.48,3.48,0,0,1,2.63-1.09,3.13,3.13,0,0,1,1.71.46,3,3,0,0,1,1.11,1.21v-1.54H296v7.68h-1.29v-1.56a3,3,0,0,1-1.11,1.22,3.13,3.13,0,0,1-1.71.47A3.44,3.44,0,0,1,289.3,377.33Zm4.68-.75a3.24,3.24,0,0,0,0-4.17,2.47,2.47,0,0,0-1.83-.78,2.53,2.53,0,0,0-1.84.75,2.77,2.77,0,0,0-.76,2.06,3,3,0,0,0,.77,2.12,2.49,2.49,0,0,0,3.66,0Z"/><path d="M302.25,370.52a3.46,3.46,0,0,1,2.62,1.09,3.91,3.91,0,0,1,1.05,2.84,4.1,4.1,0,0,1-1.05,2.88,3.45,3.45,0,0,1-2.62,1.13,3.1,3.1,0,0,1-2.84-1.69v1.56h-1.28V368h1.28v4.22a3.1,3.1,0,0,1,1.12-1.21A3.14,3.14,0,0,1,302.25,370.52Zm-.25,6.85a2.44,2.44,0,0,0,1.84-.81,3,3,0,0,0,.76-2.11,2.83,2.83,0,0,0-.76-2.07,2.53,2.53,0,0,0-1.84-.75,2.47,2.47,0,0,0-1.83.78,2.85,2.85,0,0,0-.76,2.08,2.89,2.89,0,0,0,.76,2.09A2.48,2.48,0,0,0,302,377.37Z"/><path d="M307.51,378.33V368h1.28v10.36Z"/><path d="M312.15,369.16a.85.85,0,0,1-.62.26.82.82,0,0,1-.61-.26.87.87,0,0,1,0-1.23.81.81,0,0,1,.61-.25.84.84,0,0,1,.61.25.87.87,0,0,1,.25.62A.85.85,0,0,1,312.15,369.16Zm-1.27,9.17v-7.68h1.28v7.68Z"/><path d="M314,372.82a2,2,0,0,1,.8-1.63,3.16,3.16,0,0,1,2.09-.67,2.94,2.94,0,0,1,2,.65,2.54,2.54,0,0,1,.8,1.79h-1.32a1.48,1.48,0,0,0-.43-1,1.57,1.57,0,0,0-1.13-.39,1.69,1.69,0,0,0-1.13.34,1.1,1.1,0,0,0-.42.88,1,1,0,0,0,.47.84,3.26,3.26,0,0,0,1.14.42c.44.09.88.2,1.33.31a2.44,2.44,0,0,1,1.13.66,1.9,1.9,0,0,1,.47,1.37,1.82,1.82,0,0,1-.81,1.5,3.33,3.33,0,0,1-2.09.61,3.1,3.1,0,0,1-2.06-.64A2.41,2.41,0,0,1,314,376h1.31a1.44,1.44,0,0,0,.46,1,1.72,1.72,0,0,0,1.18.38,1.91,1.91,0,0,0,1.17-.32,1,1,0,0,0,.09-1.61,1.84,1.84,0,0,0-.84-.41l-1.1-.26c-.39-.1-.76-.22-1.1-.33a1.87,1.87,0,0,1-.84-.61A1.75,1.75,0,0,1,314,372.82Z"/><path d="M322.9,368v3.92a2.67,2.67,0,0,1,2.5-1.37,2.89,2.89,0,0,1,2.13.85,3.24,3.24,0,0,1,.86,2.41v4.55h-1.27V374a2.47,2.47,0,0,0-.56-1.76,2,2,0,0,0-1.54-.6,2,2,0,0,0-1.56.6,2.51,2.51,0,0,0-.56,1.76v4.34h-1.28V368Z"/><path d="M331.69,370.65v1.24a2.68,2.68,0,0,1,2.5-1.37,3,3,0,0,1,1.6.43,2.63,2.63,0,0,1,1.08,1.24A3.22,3.22,0,0,1,338,371a3.12,3.12,0,0,1,1.64-.44,2.92,2.92,0,0,1,2.16.85,3.24,3.24,0,0,1,.85,2.41v4.55H341.4V374a2.47,2.47,0,0,0-.56-1.76,2.3,2.3,0,0,0-3.1,0,2.51,2.51,0,0,0-.56,1.76v4.34h-1.26V374a2.51,2.51,0,0,0-.56-1.76,2.3,2.3,0,0,0-3.1,0,2.47,2.47,0,0,0-.57,1.76v4.34h-1.28v-7.68Z"/><path d="M347.91,378.46a3.51,3.51,0,0,1-2.68-1.09,4,4,0,0,1-1-2.89,4,4,0,0,1,1.05-2.87,3.7,3.7,0,0,1,6.43,2.56,4.42,4.42,0,0,1-.06.76h-6.12a2.65,2.65,0,0,0,.72,1.81,2.29,2.29,0,0,0,1.7.67,2.42,2.42,0,0,0,1.33-.35,2,2,0,0,0,.79-.93h1.37a3.5,3.5,0,0,1-1.25,1.67A3.65,3.65,0,0,1,347.91,378.46Zm1.73-6.22a2.51,2.51,0,0,0-3.39,0,2.58,2.58,0,0,0-.74,1.79h4.83A2.42,2.42,0,0,0,349.64,372.24Z"/><path d="M354.52,370.65v1.24a2.69,2.69,0,0,1,2.51-1.37,2.89,2.89,0,0,1,2.13.85,3.24,3.24,0,0,1,.85,2.41v4.55h-1.26V374a2.51,2.51,0,0,0-.56-1.76,2.3,2.3,0,0,0-3.1,0,2.47,2.47,0,0,0-.57,1.76v4.34h-1.27v-7.68Z"/><path d="M364.56,377.3h1.05v1h-1.29a1.76,1.76,0,0,1-2-2v-4.68h-1v-1h1v-1.91h1.29v1.91h2v1h-2v4.68a1,1,0,0,0,.21.73A1,1,0,0,0,364.56,377.3Z"/><path d="M496.24,50.27a5,5,0,0,0-3.24,1,3.59,3.59,0,0,0-1.24,2.95,3.33,3.33,0,0,0,1.48,2.94,10.08,10.08,0,0,0,3.59,1.48c1.4.32,2.8.67,4.21,1.08A7.59,7.59,0,0,1,504.63,62a6.71,6.71,0,0,1,1.48,4.64A7.22,7.22,0,0,1,503.57,72a9.49,9.49,0,0,1-6.78,2.38,11.2,11.2,0,0,1-6.91-2,6.5,6.5,0,0,1-2.65-5.5H492a4.13,4.13,0,0,0,1.33,2.85,5,5,0,0,0,3.43,1,5.15,5.15,0,0,0,3.57-1.17,3.88,3.88,0,0,0,.5-5.26A4.88,4.88,0,0,0,498.76,63a27.57,27.57,0,0,0-2.79-.8c-1-.23-2-.5-3.06-.82a12.54,12.54,0,0,1-2.81-1.21A5.53,5.53,0,0,1,488,58a7.77,7.77,0,0,1,1.76-9.2,9.86,9.86,0,0,1,6.63-2.17,10.49,10.49,0,0,1,6.51,1.87,7.18,7.18,0,0,1,2.71,5.42h-4.91a4,4,0,0,0-1.33-2.61A4.55,4.55,0,0,0,496.24,50.27Z"/><path d="M519,50.27a5,5,0,0,0-3.24,1,3.59,3.59,0,0,0-1.25,2.95A3.36,3.36,0,0,0,516,57.17a10.16,10.16,0,0,0,3.59,1.48c1.41.32,2.81.67,4.21,1.08A7.54,7.54,0,0,1,527.4,62a6.67,6.67,0,0,1,1.48,4.64A7.21,7.21,0,0,1,526.35,72a9.5,9.5,0,0,1-6.79,2.38,11.18,11.18,0,0,1-6.9-2,6.48,6.48,0,0,1-2.65-5.5h4.76a4.12,4.12,0,0,0,1.32,2.85,5,5,0,0,0,3.43,1,5.15,5.15,0,0,0,3.57-1.17,3.87,3.87,0,0,0,.51-5.26A4.85,4.85,0,0,0,521.53,63a26.15,26.15,0,0,0-2.79-.8c-1-.23-2-.5-3.06-.82a13,13,0,0,1-2.81-1.21A5.58,5.58,0,0,1,510.81,58a7,7,0,0,1-.8-3.49,7.11,7.11,0,0,1,2.55-5.71,9.88,9.88,0,0,1,6.63-2.17,10.5,10.5,0,0,1,6.52,1.87,7.22,7.22,0,0,1,2.71,5.42H523.5a3.89,3.89,0,0,0-1.32-2.61A4.57,4.57,0,0,0,519,50.27Z"/><path d="M533.37,47h4.44V70.7H547v3.4H533.37Z"/><path d="M464.69,98.27a5,5,0,0,0-3.24,1,3.59,3.59,0,0,0-1.24,3,3.33,3.33,0,0,0,1.48,2.94,10.08,10.08,0,0,0,3.59,1.48c1.4.32,2.8.67,4.21,1.08a7.59,7.59,0,0,1,3.59,2.24,6.71,6.71,0,0,1,1.48,4.64A7.22,7.22,0,0,1,472,120a9.49,9.49,0,0,1-6.78,2.38,11.2,11.2,0,0,1-6.91-2,6.5,6.5,0,0,1-2.65-5.5h4.76a4.13,4.13,0,0,0,1.33,2.85,5,5,0,0,0,3.43,1,5.17,5.17,0,0,0,3.57-1.17,3.88,3.88,0,0,0,.5-5.26,4.88,4.88,0,0,0-2.06-1.35,27.57,27.57,0,0,0-2.79-.8c-1-.23-2-.5-3.06-.82a12.54,12.54,0,0,1-2.81-1.21,5.53,5.53,0,0,1-2.07-2.16,7.77,7.77,0,0,1,1.76-9.2,9.86,9.86,0,0,1,6.63-2.17,10.49,10.49,0,0,1,6.51,1.87,7.18,7.18,0,0,1,2.71,5.42h-4.91a4,4,0,0,0-1.33-2.61A4.55,4.55,0,0,0,464.69,98.27Z"/><path d="M494,95v3.47H483.49v8.23h9.36v3.43h-9.36v8.55H494v3.47H479V95Z"/><path d="M503.14,111.1v11H498.7V95h9.36q4.59,0,7.1,2.28a7.52,7.52,0,0,1,2.49,5.79A7.9,7.9,0,0,1,516,108a8,8,0,0,1-5.09,2.85l7.18,11.27h-5.42l-6.79-11Zm0-12.64v9.17h4.92a5.22,5.22,0,0,0,3.78-1.21,5.18,5.18,0,0,0,0-6.75,5.26,5.26,0,0,0-3.78-1.21Z"/><path d="M530.6,122.1,520.38,95h4.76l8,22.51L541.21,95h4.72L535.75,122.1Z"/><path d="M563.83,95v3.47H553.3v8.23h9.36v3.43H553.3v8.55h10.53v3.47h-15V95Z"/><path d="M573,111.1v11h-4.44V95h9.36c3.06,0,5.43.76,7.09,2.28a7.5,7.5,0,0,1,2.5,5.79A7.9,7.9,0,0,1,585.8,108a8,8,0,0,1-5.09,2.85l7.18,11.27h-5.42l-6.79-11Zm0-12.64v9.17h4.92a5.22,5.22,0,0,0,3.78-1.21,5.18,5.18,0,0,0,0-6.75,5.26,5.26,0,0,0-3.78-1.21Z"/><path d="M84.65,55.68a4.94,4.94,0,0,0-3.24,1,3.59,3.59,0,0,0-1.25,2.94,3.36,3.36,0,0,0,1.49,2.95,10,10,0,0,0,3.58,1.48c1.41.31,2.81.67,4.22,1.07A7.58,7.58,0,0,1,93,67.38,6.67,6.67,0,0,1,94.52,72,7.23,7.23,0,0,1,92,77.4a9.5,9.5,0,0,1-6.79,2.38,11.18,11.18,0,0,1-6.9-2,6.49,6.49,0,0,1-2.65-5.5H80.4a4.12,4.12,0,0,0,1.32,2.85,5,5,0,0,0,3.44,1A5.14,5.14,0,0,0,88.72,75a3.87,3.87,0,0,0,.51-5.26,4.85,4.85,0,0,0-2.07-1.35,24.4,24.4,0,0,0-2.78-.8c-1-.23-2-.51-3.07-.82a12.66,12.66,0,0,1-2.8-1.21,5.53,5.53,0,0,1-2.07-2.16,7.06,7.06,0,0,1-.8-3.49,7.14,7.14,0,0,1,2.55-5.72,9.94,9.94,0,0,1,6.63-2.16,10.43,10.43,0,0,1,6.52,1.87,7.22,7.22,0,0,1,2.71,5.42H89.13a3.89,3.89,0,0,0-1.32-2.61A4.57,4.57,0,0,0,84.65,55.68Z"/><path d="M107.42,55.68a4.93,4.93,0,0,0-3.23,1,3.56,3.56,0,0,0-1.25,2.94,3.35,3.35,0,0,0,1.48,2.95A10.08,10.08,0,0,0,108,64.06c1.4.31,2.81.67,4.21,1.07a7.61,7.61,0,0,1,3.59,2.25A6.67,6.67,0,0,1,117.29,72a7.22,7.22,0,0,1-2.53,5.38A9.53,9.53,0,0,1,108,79.78a11.16,11.16,0,0,1-6.9-2,6.5,6.5,0,0,1-2.66-5.5h4.76a4.18,4.18,0,0,0,1.33,2.85,5,5,0,0,0,3.43,1A5.15,5.15,0,0,0,111.5,75a3.87,3.87,0,0,0,.51-5.26,5,5,0,0,0-2.07-1.35,25.2,25.2,0,0,0-2.79-.8c-1-.23-2-.51-3.06-.82a12.74,12.74,0,0,1-2.81-1.21,5.67,5.67,0,0,1-2.07-2.16,7.06,7.06,0,0,1-.8-3.49A7.15,7.15,0,0,1,101,54.21a9.91,9.91,0,0,1,6.63-2.16,10.38,10.38,0,0,1,6.51,1.87,7.15,7.15,0,0,1,2.71,5.42h-4.91a4,4,0,0,0-1.33-2.61A4.55,4.55,0,0,0,107.42,55.68Z"/><path d="M121.77,52.4h4.45V76.11h9.17v3.4H121.77Z"/><path d="M53.45,123.84a14.29,14.29,0,0,1,0-19.87,13.55,13.55,0,0,1,9.83-3.92,14.21,14.21,0,0,1,7.7,2.12,12.09,12.09,0,0,1,4.89,6H70.53c-1.46-2.73-3.87-4.09-7.25-4.09a8.86,8.86,0,0,0-6.69,2.69,11,11,0,0,0,0,14.23,8.86,8.86,0,0,0,6.69,2.69c3.38,0,5.79-1.36,7.25-4.09h5.34a11.94,11.94,0,0,1-4.89,6,14.2,14.2,0,0,1-7.7,2.11A13.57,13.57,0,0,1,53.45,123.84Z"/><path d="M80.28,100.4h4.45v23.71h9.16v3.4H80.28Z"/><path d="M96.81,127.51V100.4h4.45v27.11Z"/><path d="M121.31,100.36v3.47H110.78v8.23h9.36v3.43h-9.36V124h10.53v3.48h-15V100.36Z"/><path d="M143.81,100.36h4.45v27.15h-4.45l-13.38-20.25v20.25H126V100.36h4.44l13.38,20.2Z"/><path d="M151.92,103.87V100.4h18.92v3.47h-7.22v23.64h-4.44V103.87Z"/><polygon class="cls-22" points="229.98 265.5 245.62 275.75 245.62 255.13 229.98 265.5"/><rect class="cls-22" x="243.98" y="263.38" width="161.09" height="4.13"/><polygon class="cls-22" points="229.98 356.5 245.62 366.75 245.62 346.13 229.98 356.5"/><rect class="cls-22" x="243.98" y="354.38" width="152.57" height="4.13"/><polygon class="cls-22" points="229.98 124.5 245.62 134.75 245.62 114.13 229.98 124.5"/><rect class="cls-22" x="243.98" y="122.38" width="161.09" height="4.13"/><polygon class="cls-22" points="406.07 191.5 390.43 201.75 390.43 181.13 406.07 191.5"/><polygon class="cls-22" points="406.07 356.5 390.43 366.75 390.43 346.13 406.07 356.5"/><rect class="cls-22" x="230.98" y="189.37" width="161.09" height="4.13" transform="translate(623.05 382.88) rotate(-180)"/><polygon class="cls-22" points="406.07 70.5 390.43 80.75 390.43 60.13 406.07 70.5"/><rect class="cls-22" x="230.98" y="68.37" width="161.09" height="4.13" transform="translate(623.05 140.88) rotate(-180)"/><path class="cls-23" d="M328,349.46v7.75s0,4-7.33,7.53c0,0-7.83-4-7.91-6.91v-8.37A18,18,0,0,1,328,349.46Z"/><path d="M323.19,354.15h-5.58a1.25,1.25,0,0,0-1.25,1.25v3.75a1.25,1.25,0,0,0,1.25,1.25h5.58a1.25,1.25,0,0,0,1.25-1.25V355.4A1.25,1.25,0,0,0,323.19,354.15Zm-2.42,3.63v.75a.26.26,0,0,1-.26.26h-.24a.24.24,0,0,1-.25-.24v-.78a.75.75,0,0,1-.37-.65.76.76,0,0,1,.76-.76.75.75,0,0,1,.75.76A.77.77,0,0,1,320.77,357.78Z"/><path d="M319.15,354.15v-.8a1.25,1.25,0,0,1,2.5,0v.8h1.6v-.9a2.76,2.76,0,0,0-2.75-2.75h-.17a2.76,2.76,0,0,0-2.75,2.75v.9h1.57Z"/></svg>